<svg width="31" height="24" viewBox="0 0 31 24" fill="none" xmlns="http://www.w3.org/2000/svg">
<path d="M25.6073 2.46217C23.7483 1.58481 21.7549 0.93842 19.6705 0.568203C19.6326 0.561058 19.5947 0.578914 19.5751 0.614627C19.3187 1.08365 19.0348 1.69552 18.8359 2.17645C16.5941 1.83124 14.3638 1.83124 12.1679 2.17645C11.969 1.68483 11.6747 1.08365 11.4172 0.614627C11.3976 0.580106 11.3597 0.56225 11.3218 0.568203C9.23862 0.937237 7.24514 1.58363 5.385 2.46217C5.3689 2.46931 5.3551 2.48122 5.34593 2.49669C1.56472 8.30714 0.528891 13.9748 1.03704 19.5721C1.03933 19.5995 1.05428 19.6257 1.07497 19.6424C3.56971 21.5268 5.98629 22.6708 8.35799 23.4291C8.39595 23.441 8.43616 23.4267 8.46032 23.3946C9.02135 22.6065 9.52145 21.7756 9.95024 20.9018C9.97555 20.8506 9.95139 20.7899 9.89967 20.7697C9.10642 20.4602 8.35109 20.0828 7.62451 19.6543C7.56704 19.6198 7.56244 19.5352 7.61531 19.4947C7.76821 19.3769 7.92115 19.2543 8.06714 19.1305C8.09356 19.1079 8.13036 19.1031 8.16142 19.1174C12.9347 21.359 18.1024 21.359 22.8194 19.1174C22.8505 19.1019 22.8873 19.1067 22.9148 19.1293C23.0609 19.2531 23.2138 19.3769 23.3678 19.4947C23.4207 19.5352 23.4172 19.6198 23.3598 19.6543C22.6332 20.0911 21.8778 20.4602 21.0834 20.7685C21.0317 20.7887 21.0087 20.8506 21.034 20.9018C21.472 21.7744 21.9721 22.6053 22.5228 23.3934C22.5458 23.4267 22.5872 23.441 22.6251 23.4291C25.0083 22.6708 27.4249 21.5268 29.9196 19.6424C29.9415 19.6257 29.9553 19.6007 29.9576 19.5733C30.5657 13.1022 28.939 7.481 25.6452 2.49787C25.6372 2.48122 25.6234 2.46931 25.6073 2.46217ZM10.6631 16.1639C9.22596 16.1639 8.04184 14.8069 8.04184 13.1403C8.04184 11.4737 9.203 10.1166 10.6631 10.1166C12.1346 10.1166 13.3072 11.4856 13.2842 13.1403C13.2842 14.8069 12.1231 16.1639 10.6631 16.1639ZM20.3546 16.1639C18.9175 16.1639 17.7334 14.8069 17.7334 13.1403C17.7334 11.4737 18.8945 10.1166 20.3546 10.1166C21.8261 10.1166 22.9988 11.4856 22.9758 13.1403C22.9758 14.8069 21.8261 16.1639 20.3546 16.1639Z" fill="white"/>
</svg>
