<svg width="174" height="47" viewBox="0 0 174 47" fill="none" xmlns="http://www.w3.org/2000/svg">
<path fill-rule="evenodd" clip-rule="evenodd" d="M104.901 19.6648C104.901 15.518 105.905 12.3011 107.913 10.0143C109.921 7.72742 112.717 6.58398 116.3 6.58398C119.883 6.58398 122.679 7.72742 124.686 10.0143C126.694 12.3011 127.698 15.518 127.698 19.6648V26.7999C127.698 31.0687 126.694 34.316 124.686 36.5419C122.679 38.7678 119.883 39.8807 116.3 39.8807C112.717 39.8807 109.921 38.7678 107.913 36.5419C105.905 34.316 104.901 31.0687 104.901 26.7999V19.6648ZM116.3 36.3132C118.802 36.3132 120.671 35.4747 121.906 33.7977C123.173 32.0901 123.806 29.6661 123.806 26.5254V19.9393C123.806 17.0121 123.173 14.649 121.906 12.85C120.671 11.051 118.802 10.1515 116.3 10.1515C113.798 10.1515 111.913 11.051 110.647 12.85C109.411 14.649 108.794 17.0121 108.794 19.9393V26.5254C108.794 29.6661 109.411 32.0901 110.647 33.7977C111.913 35.4747 113.798 36.3132 116.3 36.3132Z" fill="#F0EFF4"/>
<path d="M75.8676 7.22431H56.2217V35.6735H60.1249V39.2404H76.1456V35.6729H60.1138V24.9704H75.5896V21.4029H60.1138V10.7918H75.8676V7.22431Z" fill="#F0EFF4"/>
<path d="M82.4149 7.22431H78.2448L87.4191 39.2404H94.9253L104.1 7.22431H99.9295L91.4502 37.5938H90.8942L82.4149 7.22431Z" fill="#F0EFF4"/>
<path d="M135.172 7.22431H131.28V35.6735H135.172V39.2404H152.131V35.6729H135.172V7.22431Z" fill="#F0EFF4"/>
<path d="M147.15 7.22431H151.32L159.799 37.5938H160.355L168.835 7.22431H173.005L163.83 39.2404H156.324L147.15 7.22431Z" fill="#F0EFF4"/>
<path fill-rule="evenodd" clip-rule="evenodd" d="M46.6058 0.170654H0.00488281V46.1707H46.6058V0.170654ZM26.2524 20.3429L23.3466 2.92905L20.4408 20.3429L2.7994 23.2112L20.4408 26.0796L23.3466 43.4934L26.2524 26.0796L43.8937 23.2112L26.2524 20.3429Z" fill="#F0EFF4"/>
</svg>
