<svg width="27" height="28" viewBox="0 0 27 28" fill="none" xmlns="http://www.w3.org/2000/svg">
<path d="M26.625 2.48529V25.5147C26.625 26.0412 26.4216 26.5462 26.0597 26.9185C25.6977 27.2908 25.2068 27.5 24.6949 27.5H2.30515C1.79324 27.5 1.3023 27.2908 0.940327 26.9185C0.578354 26.5462 0.375 26.0412 0.375 25.5147L0.375 2.48529C0.375 1.95876 0.578354 1.45379 0.940327 1.08148C1.3023 0.709164 1.79324 0.5 2.30515 0.5L24.6949 0.5C25.2068 0.5 25.6977 0.709164 26.0597 1.08148C26.4216 1.45379 26.625 1.95876 26.625 2.48529ZM8.09559 10.8235H4.23529V23.5294H8.09559V10.8235ZM8.44302 6.45588C8.44505 6.15554 8.38955 5.85773 8.27968 5.57945C8.16982 5.30117 8.00773 5.04787 7.80269 4.83402C7.59765 4.62017 7.35367 4.44996 7.08467 4.3331C6.81567 4.21624 6.52693 4.15502 6.23493 4.15294H6.16544C5.57163 4.15294 5.00214 4.39557 4.58225 4.82746C4.16236 5.25934 3.92647 5.8451 3.92647 6.45588C3.92647 7.06666 4.16236 7.65242 4.58225 8.08431C5.00214 8.51619 5.57163 8.75882 6.16544 8.75882C6.45746 8.76621 6.74804 8.71435 7.02056 8.60619C7.29309 8.49803 7.54222 8.3357 7.75373 8.12847C7.96524 7.92124 8.13498 7.67318 8.25325 7.39845C8.37152 7.12372 8.436 6.82772 8.44302 6.52735V6.45588ZM22.7647 15.8106C22.7647 11.9909 20.4022 10.5059 18.0551 10.5059C17.2867 10.4663 16.5215 10.6347 15.8361 10.9942C15.1506 11.3537 14.5687 11.8917 14.1485 12.5547H14.0404V10.8235H10.4118V23.5294H14.2721V16.7715C14.2163 16.0793 14.4282 15.3925 14.8619 14.8602C15.2956 14.3279 15.9159 13.9931 16.5882 13.9285H16.7349C17.9625 13.9285 18.8735 14.7226 18.8735 16.7238V23.5294H22.7338L22.7647 15.8106Z" fill="white"/>
</svg>
